<svg xmlns="http://www.w3.org/2000/svg" width="124" height="33" viewBox="0 0 124 33">
    <g fill="none" fill-rule="nonzero">
        <path fill="#9498A0" d="M54.399 20.732v-4.5c0-1.698-1.075-2.84-2.804-2.856a2.753 2.753 0 0 0-2.504 1.278 2.612 2.612 0 0 0-2.354-1.278 2.352 2.352 0 0 0-2.084 1.068v-.9h-1.55v7.188h1.565v-3.98c0-1.249.685-1.909 1.744-1.909 1.06 0 1.551.675 1.551 1.893v3.996h1.557v-3.98c0-1.249.714-1.909 1.744-1.909s1.566.675 1.566 1.893v3.996h1.569zm23.167-7.182h-2.533v-2.177h-1.566v2.177h-1.446v1.428h1.446v3.273c0 1.668.64 2.661 2.474 2.661a3.623 3.623 0 0 0 1.938-.555l-.447-1.338c-.416.25-.888.39-1.372.405-.774 0-1.03-.48-1.03-1.2v-3.246h2.533l.003-1.428zm13.226-.18a2.098 2.098 0 0 0-1.879 1.053v-.873h-1.536v7.182h1.551v-4.026c0-1.2.506-1.848 1.521-1.848a2.51 2.51 0 0 1 .97.18l.477-1.473a3.29 3.29 0 0 0-1.104-.195zm-19.995.75a5.296 5.296 0 0 0-2.908-.75c-1.804 0-2.977.873-2.977 2.298 0 1.173.863 1.893 2.459 2.118l.73.105c.848.12 1.252.345 1.252.75 0 .555-.565.873-1.625.873a3.778 3.778 0 0 1-2.381-.75l-.706 1.215a5.113 5.113 0 0 0 3.087.933c2.057 0 3.25-.978 3.25-2.343 0-1.263-.94-1.923-2.488-2.148l-.73-.105c-.669-.09-1.208-.225-1.208-.705 0-.525.506-.84 1.358-.84.78.012 1.544.224 2.22.615l.667-1.266zm41.53-.75a2.098 2.098 0 0 0-1.878 1.053v-.873h-1.535v7.182h1.55v-4.026c0-1.2.506-1.848 1.521-1.848a2.51 2.51 0 0 1 .97.18l.477-1.473a3.29 3.29 0 0 0-1.104-.195zm-19.97 3.771c0 2.178 1.506 3.771 3.801 3.771.931.046 1.845-.26 2.563-.858l-.744-1.263a3.116 3.116 0 0 1-1.863.645c-1.238 0-2.146-.918-2.146-2.298s.91-2.283 2.146-2.298a3.116 3.116 0 0 1 1.863.645l.744-1.263a3.714 3.714 0 0 0-2.563-.858c-2.295 0-3.8 1.593-3.8 3.771v.006zm14.52 0v-3.6h-1.55v.873a2.695 2.695 0 0 0-2.25-1.053c-1.998 0-3.573 1.578-3.573 3.771 0 2.193 1.566 3.771 3.572 3.771a2.695 2.695 0 0 0 2.25-1.053v.87h1.551v-3.579zm-5.768 0c0-1.263.818-2.298 2.16-2.298 1.284 0 2.147.993 2.147 2.298 0 1.305-.863 2.298-2.146 2.298-1.343 0-2.161-1.038-2.161-2.298zm-18.712-3.77c-2.083 0-3.548 1.532-3.548 3.77 0 2.283 1.521 3.771 3.652 3.771a4.31 4.31 0 0 0 2.924-1.008l-.76-1.158a3.38 3.38 0 0 1-2.083.75c-1 0-1.908-.465-2.131-1.758h5.292c.015-.195.03-.39.03-.6 0-2.238-1.387-3.77-3.385-3.77l.01.002zm-.03 1.397c1 0 1.64.63 1.804 1.743h-3.694c.164-1.038.79-1.743 1.893-1.743h-.002zm38.89 2.373v-6.476h-1.55v3.755a2.695 2.695 0 0 0-2.25-1.053c-1.998 0-3.572 1.578-3.572 3.771 0 2.193 1.565 3.771 3.572 3.771a2.695 2.695 0 0 0 2.25-1.053v.87h1.55v-3.585zm1.814 2.928a.452.452 0 0 1 .324.135.45.45 0 0 1 0 .642.444.444 0 0 1-.324.135.461.461 0 0 1-.429-.279.453.453 0 0 1 .244-.597.464.464 0 0 1 .19-.036h-.005zm0 .81a.334.334 0 0 0 .247-.102.359.359 0 0 0-.11-.579.34.34 0 0 0-.137-.027.352.352 0 0 0-.14.027.356.356 0 0 0 0 .654c.046.02.096.029.146.027h-.006zm.026-.57a.19.19 0 0 1 .125.036.12.12 0 0 1 .045.099.114.114 0 0 1-.036.087.166.166 0 0 1-.098.042l.137.159h-.107l-.128-.159h-.042v.159h-.09v-.42l.194-.003zm-.104.078v.114h.104a.1.1 0 0 0 .057 0 .048.048 0 0 0 .02-.042.048.048 0 0 0-.02-.042.1.1 0 0 0-.057 0l-.104-.03zm-7.498-3.246c0-1.263.819-2.298 2.161-2.298 1.283 0 2.146.993 2.146 2.298 0 1.305-.863 2.298-2.146 2.298-1.342 0-2.161-1.038-2.161-2.298zm-52.36 0v-3.6h-1.55v.873a2.695 2.695 0 0 0-2.242-1.044c-1.997 0-3.572 1.578-3.572 3.771 0 2.193 1.566 3.771 3.572 3.771a2.695 2.695 0 0 0 2.25-1.053v.87h1.551l-.009-3.588zm-5.769 0c0-1.263.819-2.298 2.161-2.298 1.283 0 2.147.993 2.147 2.298 0 1.305-.864 2.298-2.147 2.298-1.342 0-2.16-1.035-2.16-2.298z"/>
        <path fill="#5E6877" d="M13.937 8.604h9.377v16.982h-9.377z"/>
        <path fill="#4F5968" d="M14.532 17.1a10.812 10.812 0 0 1 4.093-8.49A10.657 10.657 0 0 0 4.13 9.774C.34 13.911.34 20.29 4.13 24.427a10.657 10.657 0 0 0 14.494 1.165 10.812 10.812 0 0 1-4.093-8.493z"/>
        <path fill="#8C95A3" d="M35.964 17.1c0 4.134-2.343 7.906-6.033 9.713a10.649 10.649 0 0 1-11.306-1.224 10.83 10.83 0 0 0 4.094-8.491 10.83 10.83 0 0 0-4.094-8.491 10.649 10.649 0 0 1 11.307-1.223c3.69 1.807 6.033 5.58 6.032 9.715z"/>
    </g>
</svg>
