<svg xmlns="http://www.w3.org/2000/svg" width="64" height="33" viewBox="0 0 64 33">
    <g fill="none" fill-rule="nonzero">
        <path fill="#707884" d="M22.218 26l3.106-18.687h4.968l-3.108 18.688h-4.966M45.202 7.773c-.984-.379-2.526-.785-4.452-.785-4.91 0-8.367 2.535-8.397 6.167-.027 2.686 2.47 4.184 4.353 5.078 1.934.915 2.585 1.5 2.575 2.318-.012 1.252-1.544 1.825-2.972 1.825-1.989 0-3.045-.284-4.676-.981l-.64-.297-.698 4.183c1.16.521 3.306.974 5.534.997 5.223 0 8.613-2.506 8.651-6.385.02-2.125-1.305-3.743-4.17-5.077-1.737-.864-2.8-1.442-2.79-2.317 0-.777.9-1.607 2.846-1.607a8.967 8.967 0 0 1 3.718.716l.445.215.673-4.05M57.942 7.331h-3.839c-1.189 0-2.079.333-2.601 1.55l-7.379 17.126h5.217s.853-2.303 1.046-2.808l6.363.007c.148.654.604 2.8.604 2.8h4.61l-4.02-18.675m-6.127 12.045c.41-1.077 1.98-5.224 1.98-5.224-.03.05.407-1.082.658-1.783l.336 1.61 1.15 5.397h-4.124M18.05 7.327L13.188 20.07l-.519-2.59c-.905-2.985-3.726-6.22-6.88-7.839l4.447 16.344 5.257-.006 7.821-18.652h-5.262" opacity=".5"/>
        <path fill="#ADB1B9" d="M8.674 7.315H.664L.6 7.704c6.233 1.547 10.357 5.285 12.068 9.776l-1.741-8.587c-.301-1.184-1.174-1.537-2.253-1.578"/>
    </g>
</svg>
